PathFileType	4	(X/Y/Z)	C:\Users\italobelli\Desktop\GitHub\PTbot_officialCBL\Personal_Results\SHRUG03_noisy1.trc
DataRate	CameraRate	NumFrames	NumMarkers	Units	OrigDataRate	OrigDataStartFrame	OrigNumFrames
110.888889	110.888889	17	9	m	110.888889	376	500
Frame#	Time		gu		centelbow		EpL		centpxt8		centijc7		ts		aa		ai		ij
			X1	Y1	Z1	X2	Y2	Z2	X3	Y3	Z3	X4	Y4	Z4	X5	Y5	Z5	X6	Y6	Z6	X7	Y7	Z7	X8	Y8	Z8	X9	Y9	Z9

376	3.3818	-0.083454	-0.013037	0.16557	-0.13677	-0.2521	0.20006	-0.11763	-0.24747	0.22559	-0.046816	-0.15316	-0.008669	-0.046816	0.031938	-0.008669	-0.13834	0.03138	0.053658	-0.11032	0.025603	0.16944	-0.15986	-0.079959	0.058682	0	0	0
377	3.3908	-0.08345	-0.013023	0.16558	-0.13692	-0.2521	0.20018	-0.11778	-0.24748	0.22571	-0.046816	-0.15316	-0.008669	-0.046816	0.031938	-0.008669	-0.13834	0.031401	0.053667	-0.11032	0.025619	0.16945	-0.15987	-0.079937	0.058687	0	0	0
378	3.3998	-0.083447	-0.01301	0.16559	-0.13707	-0.2521	0.20029	-0.11793	-0.24749	0.22582	-0.046816	-0.15316	-0.008669	-0.046816	0.031938	-0.008669	-0.13834	0.031421	0.053676	-0.11032	0.025634	0.16946	-0.15987	-0.079916	0.058691	0	0	0
379	3.4088	-0.083443	-0.012997	0.16561	-0.13721	-0.2521	0.20039	-0.11806	-0.2475	0.22592	-0.046816	-0.15316	-0.008669	-0.046816	0.031938	-0.008669	-0.13834	0.03144	0.053684	-0.11033	0.025648	0.16947	-0.15988	-0.079896	0.058695	0	0	0
380	3.4178	-0.08344	-0.012985	0.16562	-0.13733	-0.25211	0.20048	-0.11818	-0.24751	0.22602	-0.046816	-0.15316	-0.008669	-0.046816	0.031938	-0.008669	-0.13834	0.031458	0.053692	-0.11033	0.025661	0.16947	-0.15989	-0.079878	0.058699	0	0	0
381	3.4269	-0.083437	-0.012973	0.16563	-0.13744	-0.25212	0.20057	-0.1183	-0.24753	0.2261	-0.046816	-0.15316	-0.008669	-0.046816	0.031938	-0.008669	-0.13834	0.031475	0.053699	-0.11033	0.025673	0.16948	-0.15989	-0.079861	0.058703	0	0	0
382	3.4359	-0.083435	-0.012961	0.16564	-0.13754	-0.25213	0.20065	-0.1184	-0.24755	0.22618	-0.046816	-0.15316	-0.008669	-0.046816	0.031938	-0.008669	-0.13834	0.03149	0.053706	-0.11033	0.025684	0.16949	-0.15989	-0.079845	0.058707	0	0	0
383	3.4449	-0.083432	-0.01295	0.16564	-0.13763	-0.25214	0.20072	-0.11848	-0.24757	0.22625	-0.046816	-0.15316	-0.008669	-0.046816	0.031938	-0.008669	-0.13834	0.031504	0.053713	-0.11034	0.025694	0.1695	-0.1599	-0.079831	0.05871	0	0	0
384	3.4539	-0.08343	-0.01294	0.16565	-0.13771	-0.25216	0.20078	-0.11856	-0.24759	0.22631	-0.046816	-0.15316	-0.008669	-0.046816	0.031938	-0.008669	-0.13834	0.031517	0.05372	-0.11034	0.025702	0.1695	-0.1599	-0.079818	0.058713	0	0	0
385	3.4629	-0.083428	-0.01293	0.16565	-0.13777	-0.25218	0.20083	-0.11862	-0.24762	0.22636	-0.046816	-0.15316	-0.008669	-0.046816	0.031938	-0.008669	-0.13834	0.031528	0.053726	-0.11034	0.025709	0.16951	-0.1599	-0.079807	0.058715	0	0	0
386	3.4719	-0.083427	-0.01292	0.16566	-0.13782	-0.2522	0.20087	-0.11867	-0.24764	0.2264	-0.046816	-0.15316	-0.008669	-0.046816	0.031938	-0.008669	-0.13834	0.031538	0.053731	-0.11034	0.025715	0.16952	-0.15991	-0.079797	0.058718	0	0	0
387	3.481	-0.083426	-0.012911	0.16566	-0.13785	-0.25223	0.2009	-0.1187	-0.24767	0.22643	-0.046816	-0.15316	-0.008669	-0.046816	0.031938	-0.008669	-0.13834	0.031546	0.053736	-0.11034	0.02572	0.16952	-0.15991	-0.079789	0.05872	0	0	0
388	3.49	-0.083425	-0.012903	0.16565	-0.13787	-0.25226	0.20092	-0.11872	-0.24771	0.22645	-0.046816	-0.15316	-0.008669	-0.046816	0.031938	-0.008669	-0.13834	0.031552	0.053741	-0.11034	0.025723	0.16953	-0.15991	-0.079783	0.058722	0	0	0
389	3.499	-0.083424	-0.012895	0.16565	-0.13788	-0.2523	0.20093	-0.11873	-0.24775	0.22646	-0.046816	-0.15316	-0.008669	-0.046816	0.031938	-0.008669	-0.13834	0.031558	0.053746	-0.11034	0.025725	0.16953	-0.15991	-0.079778	0.058723	0	0	0
390	3.508	-0.083424	-0.012887	0.16565	-0.13787	-0.25233	0.20093	-0.11872	-0.24779	0.22646	-0.046816	-0.15316	-0.008669	-0.046816	0.031938	-0.008669	-0.13834	0.031561	0.05375	-0.11034	0.025726	0.16953	-0.15991	-0.079775	0.058724	0	0	0
391	3.517	-0.083424	-0.01288	0.16564	-0.13786	-0.25238	0.20093	-0.11871	-0.24783	0.22645	-0.046816	-0.15316	-0.008669	-0.046816	0.031938	-0.008669	-0.13834	0.031565	0.053753	-0.11034	0.025726	0.16954	-0.15991	-0.079773	0.058725	0	0	0
392	3.5261	-0.083424	-0.012872	0.16563	-0.13784	-0.25242	0.20092	-0.11869	-0.24788	0.22644	-0.046816	-0.15316	-0.008669	-0.046816	0.031938	-0.008669	-0.13834	0.031567	0.053757	-0.11034	0.025725	0.16954	-0.15991	-0.079771	0.058726	0	0	0
